<svg height="512pt" viewBox="0 0 512 512" width="512pt" xmlns="http://www.w3.org/2000/svg" xmlns:xlink="http://www.w3.org/1999/xlink"><linearGradient id="a" gradientUnits="userSpaceOnUse" x1="0" x2="512" y1="256" y2="256"><stop offset="0" stop-color="#00f38d"/><stop offset="1" stop-color="#009eff"/></linearGradient><path d="m512 256c0 141.386719-114.613281 256-256 256s-256-114.613281-256-256 114.613281-256 256-256 256 114.613281 256 256zm0 0" fill="url(#a)"/><g fill="#fff"><path d="m345.621094 319.261719c0 7.28125-5.898438 13.179687-13.179688 13.179687-7.277344 0-13.179687-5.898437-13.179687-13.179687 0-7.277344 5.902343-13.179688 13.179687-13.179688 7.28125 0 13.179688 5.902344 13.179688 13.179688zm0 0"/><path d="m192.738281 319.261719c0 7.28125-5.902343 13.179687-13.179687 13.179687-7.28125 0-13.179688-5.898437-13.179688-13.179687 0-7.277344 5.898438-13.179688 13.179688-13.179688 7.277344 0 13.179687 5.902344 13.179687 13.179688zm0 0"/><path d="m424.699219 203.28125h-24.539063v-35.09375c0-38.308594-27.382812-70.714844-65.109375-77.058594-22.292969-3.746094-48.667969-5.648437-78.390625-5.648437-30.144531 0-56.9375 1.953125-79.636718 5.804687-37.769532 6.410156-65.183594 38.824219-65.183594 77.070313v34.925781h-24.539063v55.355469h24.539063v126.523437c0 22.808594 18.554687 41.359375 41.359375 41.359375 22.804687 0 41.359375-18.554687 41.359375-41.359375v-4.769531h122.882812v4.769531c0 22.808594 18.554688 41.359375 41.359375 41.359375 22.804688 0 41.359375-18.554687 41.359375-41.359375v-126.523437h24.539063zm-282.859375-31.128906h228.320312v84.664062h-228.320312zm40.203125-51.289063c21.046875-3.570312 46.152343-5.382812 74.617187-5.382812 28.0625 0 52.761719 1.761719 73.417969 5.234375 13.828125 2.324218 25.398437 10.347656 32.5 21.4375h-213.007813c7.128907-10.992188 18.679688-18.949219 32.472657-21.289063zm-17.484375 264.296875c0 6.265625-5.09375 11.359375-11.359375 11.359375-6.261719 0-11.359375-5.097656-11.359375-11.359375v-4.769531h22.71875zm205.601562 0c0 6.265625-5.097656 11.359375-11.359375 11.359375s-11.359375-5.097656-11.359375-11.359375v-4.769531h22.71875zm0-34.769531h-228.320312v-63.574219h228.320312zm0 0"/></g></svg>