<svg height="512pt" viewBox="0 0 512 512" width="512pt" xmlns="http://www.w3.org/2000/svg" xmlns:xlink="http://www.w3.org/1999/xlink"><linearGradient id="a" gradientUnits="userSpaceOnUse" x1="0" x2="512" y1="256" y2="256"><stop offset="0" stop-color="#00f38d"/><stop offset="1" stop-color="#009eff"/></linearGradient><path d="m512 256c0 141.386719-114.613281 256-256 256s-256-114.613281-256-256 114.613281-256 256-256 256 114.613281 256 256zm0 0" fill="url(#a)"/><g fill="#fff"><path d="m256 65.433594c-91.886719 0-166.640625 74.753906-166.640625 166.640625v164.492187h30v-164.492187c0-75.34375 61.296875-136.640625 136.640625-136.640625s136.640625 61.296875 136.640625 136.640625v164.492187h30v-164.492187c0-91.886719-74.753906-166.640625-166.640625-166.640625zm0 0"/><path d="m308.054688 163.101562h-13.472657c-5.828125-15.363281-20.6875-26.3125-38.066406-26.3125s-32.242187 10.949219-38.066406 26.3125h-14.503907c-29.53125 0-53.554687 24.023438-53.554687 53.550782v113.730468c0 22.441407 18.261719 40.703126 40.703125 40.703126h1.175781l-22.972656 25.480468h34.601563l22.976562-25.480468h60.820312l22.972657 25.480468h34.605469l-23.003907-25.515625c21.8125-.722656 39.335938-18.683593 39.335938-40.667969v-113.730468c.003906-29.527344-24.019531-53.550782-53.550781-53.550782zm23.554687 53.550782v46.683594h-59.964844v-48.074219c10.128907-4.070313 18.257813-12.097657 22.453125-22.160157h13.957032c12.988281 0 23.554687 10.5625 23.554687 23.550782zm-75.09375-49.863282c5.898437 0 10.699219 4.800782 10.699219 10.699219 0 5.902344-4.800782 10.703125-10.699219 10.703125-5.902344 0-10.703125-4.800781-10.703125-10.703125 0-5.898437 4.800781-10.699219 10.703125-10.699219zm-52.570313 26.3125h14.984376c4.234374 10.152344 12.464843 18.226563 22.714843 22.261719v47.976563h-61.253906v-46.6875c0-12.988282 10.566406-23.550782 23.554687-23.550782zm116.960938 147.984376h-129.8125c-5.902344 0-10.703125-4.800782-10.703125-10.703126v-37.046874h151.21875v37.046874c0 5.902344-4.800781 10.703126-10.703125 10.703126zm0 0"/><path d="m216.804688 317.53125c0 7.097656-5.753907 12.851562-12.851563 12.851562s-12.851563-5.753906-12.851563-12.851562c0-7.09375 5.753907-12.847656 12.851563-12.847656s12.851563 5.753906 12.851563 12.847656zm0 0"/><path d="m320.253906 317.53125c0 7.097656-5.753906 12.851562-12.851562 12.851562s-12.847656-5.753906-12.847656-12.851562c0-7.09375 5.75-12.847656 12.847656-12.847656s12.851562 5.753906 12.851562 12.847656zm0 0"/></g></svg>