<svg height="512pt" viewBox="0 0 512 512" width="512pt" xmlns="http://www.w3.org/2000/svg" xmlns:xlink="http://www.w3.org/1999/xlink"><linearGradient id="a" gradientUnits="userSpaceOnUse" x1="0" x2="512" y1="256" y2="256"><stop offset="0" stop-color="#00f38d"/><stop offset="1" stop-color="#009eff"/></linearGradient><path d="m512 256c0 141.386719-114.613281 256-256 256s-256-114.613281-256-256 114.613281-256 256-256 256 114.613281 256 256zm0 0" fill="url(#a)"/><g fill="#fff"><path d="m317.683594 154.046875h-46.042969v-33.613281h46.042969c5.902344 0 10.703125 4.800781 10.703125 10.703125h30c0-22.441407-18.257813-40.703125-40.703125-40.703125h-123.367188c-22.445312 0-40.703125 18.261718-40.703125 40.703125h30c0-5.902344 4.800781-10.703125 10.703125-10.703125h47.324219v33.613281h-47.324219c-36.617187 0-66.402344 29.789063-66.402344 66.402344v143.285156c0 22.445313 18.257813 40.703125 40.699219 40.703125h1.375l-15.441406 17.128906h34.605469l15.441406-17.128906h102.8125l15.441406 17.128906h34.605469l-15.441406-17.128906h1.375c22.441406 0 40.703125-18.257812 40.703125-40.703125v-143.285156c-.003906-36.613281-29.789063-66.402344-66.40625-66.402344zm36.402344 66.402344v50.539062h-31.683594v-86.625c17.851562 2.320313 31.683594 17.613281 31.683594 36.085938zm-134.488282-36.402344h72.804688v86.941406h-72.804688zm-30 .316406v86.625h-31.6875v-50.539062c.003906-18.472657 13.835938-33.765625 31.6875-36.085938zm153.789063 190.074219h-174.773438c-5.898437 0-10.699219-4.800781-10.699219-10.699219v-62.75h196.175782v62.75c-.003906 5.898438-4.804688 10.699219-10.703125 10.699219zm0 0"/><path d="m200.742188 344.460938c0 7.097656-5.753907 12.851562-12.851563 12.851562s-12.851563-5.753906-12.851563-12.851562c0-7.097657 5.753907-12.851563 12.851563-12.851563s12.851563 5.753906 12.851563 12.851563zm0 0"/><path d="m336.316406 344.460938c0 7.097656-5.753906 12.851562-12.847656 12.851562-7.097656 0-12.851562-5.753906-12.851562-12.851562 0-7.097657 5.753906-12.851563 12.851562-12.851563 7.09375 0 12.847656 5.753906 12.847656 12.851563zm0 0"/></g></svg>